<mxfile host="app.diagrams.net" agent="Mozilla/5.0 (Windows NT 10.0; Win64; x64) AppleWebKit/537.36 (KHTML, like Gecko) Chrome/141.0.0.0 Safari/537.36" version="28.2.7">
  <diagram name="Seite-1" id="h5Qas4f92OtBpUkp_4Ej">
    <mxGraphModel dx="1895" dy="2302" grid="1" gridSize="10" guides="1" tooltips="1" connect="1" arrows="1" fold="1" page="1" pageScale="1" pageWidth="827" pageHeight="1169" math="0" shadow="0">
      <root>
        <mxCell id="0" />
        <mxCell id="1" parent="0" />
        <mxCell id="zfEZaozMEuIx0nUbr--0-2" value="" style="image;aspect=fixed;perimeter=ellipsePerimeter;html=1;align=center;shadow=0;dashed=0;spacingTop=3;image=img/lib/active_directory/web_server.svg;" vertex="1" parent="1">
          <mxGeometry x="682.4300000000001" y="150" width="120" height="150" as="geometry" />
        </mxCell>
        <mxCell id="zfEZaozMEuIx0nUbr--0-3" value="" style="image;perimeter=ellipsePerimeter;html=1;align=center;shadow=0;dashed=0;spacingTop=3;image=img/lib/active_directory/database.svg;imageAspect=0;resizable=1;resizeWidth=1;resizeHeight=1;" vertex="1" parent="1">
          <mxGeometry x="460" y="140" width="120" height="165.5" as="geometry" />
        </mxCell>
        <mxCell id="zfEZaozMEuIx0nUbr--0-12" value="" style="shape=mxgraph.cisco.computers_and_peripherals.web_browser;html=1;pointerEvents=1;dashed=0;fillColor=light-dark(#3086E2,#5CB3DC);strokeColor=#ffffff;strokeWidth=2;verticalLabelPosition=bottom;verticalAlign=top;align=center;outlineConnect=0;" vertex="1" parent="1">
          <mxGeometry x="912.4300000000001" y="160" width="130" height="140" as="geometry" />
        </mxCell>
        <mxCell id="zfEZaozMEuIx0nUbr--0-14" value="&lt;font style=&quot;font-size: 16px;&quot;&gt;SQLite database&lt;/font&gt;" style="text;html=1;whiteSpace=wrap;strokeColor=none;fillColor=none;align=center;verticalAlign=middle;rounded=0;" vertex="1" parent="1">
          <mxGeometry x="480" y="305.5" width="80" height="30" as="geometry" />
        </mxCell>
        <mxCell id="zfEZaozMEuIx0nUbr--0-15" value="&lt;font style=&quot;font-size: 16px;&quot;&gt;Webserver&lt;/font&gt;" style="text;html=1;whiteSpace=wrap;strokeColor=none;fillColor=none;align=center;verticalAlign=middle;rounded=0;" vertex="1" parent="1">
          <mxGeometry x="690.4300000000001" y="300" width="80" height="30" as="geometry" />
        </mxCell>
        <mxCell id="zfEZaozMEuIx0nUbr--0-16" value="&lt;font style=&quot;font-size: 16px;&quot;&gt;Controlled Browser&lt;/font&gt;" style="text;html=1;whiteSpace=wrap;strokeColor=none;fillColor=none;align=center;verticalAlign=middle;rounded=0;" vertex="1" parent="1">
          <mxGeometry x="946.4300000000001" y="305.5" width="80" height="30" as="geometry" />
        </mxCell>
        <mxCell id="zfEZaozMEuIx0nUbr--0-17" value="&lt;font style=&quot;font-size: 16px;&quot;&gt;Fingerprinting Website&lt;/font&gt;" style="text;html=1;whiteSpace=wrap;strokeColor=none;fillColor=none;align=center;verticalAlign=middle;rounded=0;" vertex="1" parent="1">
          <mxGeometry x="1202.43" y="305.5" width="140" height="30" as="geometry" />
        </mxCell>
        <mxCell id="zfEZaozMEuIx0nUbr--0-18" value="" style="verticalLabelPosition=bottom;shadow=0;dashed=0;align=center;html=1;verticalAlign=top;strokeWidth=1;shape=mxgraph.mockup.markup.curlyBrace;whiteSpace=wrap;strokeColor=light-dark(#000000, #6a6a6a);rotation=-180;" vertex="1" parent="1">
          <mxGeometry x="480.43" y="350" width="290" height="20" as="geometry" />
        </mxCell>
        <mxCell id="zfEZaozMEuIx0nUbr--0-19" value="" style="endArrow=none;dashed=1;html=1;dashPattern=1 3;strokeWidth=2;rounded=0;" edge="1" parent="1">
          <mxGeometry width="50" height="50" relative="1" as="geometry">
            <mxPoint x="856.4300000000001" y="420" as="sourcePoint" />
            <mxPoint x="856.4300000000001" y="140" as="targetPoint" />
          </mxGeometry>
        </mxCell>
        <mxCell id="zfEZaozMEuIx0nUbr--0-20" value="&lt;font style=&quot;font-size: 16px;&quot;&gt;Server-side&lt;/font&gt;" style="text;html=1;whiteSpace=wrap;strokeColor=none;fillColor=none;align=center;verticalAlign=middle;rounded=0;" vertex="1" parent="1">
          <mxGeometry x="573" y="390" width="104.86" height="30" as="geometry" />
        </mxCell>
        <mxCell id="zfEZaozMEuIx0nUbr--0-21" value="" style="verticalLabelPosition=bottom;shadow=0;dashed=0;align=center;html=1;verticalAlign=top;strokeWidth=1;shape=mxgraph.mockup.markup.curlyBrace;whiteSpace=wrap;strokeColor=light-dark(#000000, #6a6a6a);rotation=-180;" vertex="1" parent="1">
          <mxGeometry x="932.4300000000001" y="350" width="400" height="20" as="geometry" />
        </mxCell>
        <mxCell id="zfEZaozMEuIx0nUbr--0-22" value="&lt;font style=&quot;font-size: 16px;&quot;&gt;Client-side&lt;/font&gt;" style="text;html=1;whiteSpace=wrap;strokeColor=none;fillColor=none;align=center;verticalAlign=middle;rounded=0;" vertex="1" parent="1">
          <mxGeometry x="1092.43" y="390" width="80" height="30" as="geometry" />
        </mxCell>
        <mxCell id="zfEZaozMEuIx0nUbr--0-29" value="" style="endArrow=classic;html=1;rounded=0;" edge="1" parent="1">
          <mxGeometry width="50" height="50" relative="1" as="geometry">
            <mxPoint x="677.86" y="260" as="sourcePoint" />
            <mxPoint x="582.4300000000001" y="260" as="targetPoint" />
          </mxGeometry>
        </mxCell>
        <mxCell id="zfEZaozMEuIx0nUbr--0-34" value="Save data" style="edgeLabel;html=1;align=center;verticalAlign=middle;resizable=0;points=[];" vertex="1" connectable="0" parent="zfEZaozMEuIx0nUbr--0-29">
          <mxGeometry x="-0.2195" relative="1" as="geometry">
            <mxPoint x="-1" as="offset" />
          </mxGeometry>
        </mxCell>
        <mxCell id="zfEZaozMEuIx0nUbr--0-31" value="" style="group" vertex="1" connectable="0" parent="1">
          <mxGeometry x="1177.43" y="150" width="190" height="150" as="geometry" />
        </mxCell>
        <object placeholders="1" c4Name="Fingerprint Features" c4Type="Comprehensive Fingerprint Hash" c4Technology="eb51a2..." c4Description="" label="&lt;font style=&quot;font-size: 14px&quot;&gt;&lt;b&gt;%c4Name%&lt;/b&gt;&lt;/font&gt;&lt;div&gt;[%c4Type%:&amp;nbsp;%c4Technology%]&lt;/div&gt;&lt;br&gt;&lt;div&gt;&lt;font style=&quot;font-size: 11px&quot;&gt;&lt;font color=&quot;#E6E6E6&quot;&gt;%c4Description%&lt;/font&gt;&lt;/div&gt;" id="zfEZaozMEuIx0nUbr--0-13">
          <mxCell style="shape=mxgraph.c4.webBrowserContainer2;whiteSpace=wrap;html=1;boundedLbl=1;rounded=0;labelBackgroundColor=none;strokeColor=light-dark(#4363ba, #319ad3);fillColor=light-dark(#4abcfd, #1d8ab9);strokeColor=#118ACD;strokeColor2=#0E7DAD;fontSize=12;fontColor=#ffffff;align=center;metaEdit=1;points=[[0.5,0,0],[1,0.25,0],[1,0.5,0],[1,0.75,0],[0.5,1,0],[0,0.75,0],[0,0.5,0],[0,0.25,0]];resizable=1;resizeHeight=1;resizeWidth=1;" vertex="1" parent="zfEZaozMEuIx0nUbr--0-31">
            <mxGeometry y="10" width="190" height="140" as="geometry" />
          </mxCell>
        </object>
        <mxCell id="zfEZaozMEuIx0nUbr--0-27" value="&lt;font style=&quot;color: rgb(255, 255, 255);&quot;&gt;http://localhost:80&lt;/font&gt;" style="text;html=1;whiteSpace=wrap;strokeColor=none;fillColor=none;align=center;verticalAlign=middle;rounded=0;" vertex="1" parent="zfEZaozMEuIx0nUbr--0-31">
          <mxGeometry x="30" width="57" height="41" as="geometry" />
        </mxCell>
        <mxCell id="zfEZaozMEuIx0nUbr--0-36" value="" style="endArrow=classic;html=1;rounded=0;" edge="1" parent="1">
          <mxGeometry width="50" height="50" relative="1" as="geometry">
            <mxPoint x="1172.43" y="260" as="sourcePoint" />
            <mxPoint x="1042.43" y="260" as="targetPoint" />
          </mxGeometry>
        </mxCell>
        <mxCell id="zfEZaozMEuIx0nUbr--0-37" value="Calculate fingerprint" style="edgeLabel;html=1;align=center;verticalAlign=middle;resizable=0;points=[];" vertex="1" connectable="0" parent="zfEZaozMEuIx0nUbr--0-36">
          <mxGeometry x="-0.2195" relative="1" as="geometry">
            <mxPoint x="-15" as="offset" />
          </mxGeometry>
        </mxCell>
        <mxCell id="zfEZaozMEuIx0nUbr--0-39" value="" style="endArrow=classic;html=1;rounded=0;entryX=1;entryY=0.733;entryDx=0;entryDy=0;entryPerimeter=0;" edge="1" parent="1" target="zfEZaozMEuIx0nUbr--0-2">
          <mxGeometry width="50" height="50" relative="1" as="geometry">
            <mxPoint x="922.4300000000001" y="260" as="sourcePoint" />
            <mxPoint x="817" y="260" as="targetPoint" />
          </mxGeometry>
        </mxCell>
        <mxCell id="zfEZaozMEuIx0nUbr--0-40" value="Send fingerprint/&lt;br&gt;test config" style="edgeLabel;html=1;align=center;verticalAlign=middle;resizable=0;points=[];" vertex="1" connectable="0" parent="zfEZaozMEuIx0nUbr--0-39">
          <mxGeometry x="-0.2195" relative="1" as="geometry">
            <mxPoint x="-13" as="offset" />
          </mxGeometry>
        </mxCell>
        <mxCell id="zfEZaozMEuIx0nUbr--0-44" value="" style="endArrow=classic;html=1;rounded=0;entryX=0.077;entryY=0.357;entryDx=0;entryDy=0;entryPerimeter=0;exitX=0.667;exitY=0.4;exitDx=0;exitDy=0;exitPerimeter=0;" edge="1" parent="1" source="zfEZaozMEuIx0nUbr--0-2" target="zfEZaozMEuIx0nUbr--0-12">
          <mxGeometry width="50" height="50" relative="1" as="geometry">
            <mxPoint x="802.4300000000001" y="210" as="sourcePoint" />
            <mxPoint x="902.4300000000001" y="210" as="targetPoint" />
          </mxGeometry>
        </mxCell>
        <mxCell id="zfEZaozMEuIx0nUbr--0-45" value="Requested website" style="edgeLabel;html=1;align=center;verticalAlign=middle;resizable=0;points=[];" vertex="1" connectable="0" parent="zfEZaozMEuIx0nUbr--0-44">
          <mxGeometry x="-0.2465" y="-1" relative="1" as="geometry">
            <mxPoint x="12" as="offset" />
          </mxGeometry>
        </mxCell>
        <mxCell id="zfEZaozMEuIx0nUbr--0-46" value="" style="endArrow=classic;html=1;rounded=0;entryX=0.077;entryY=0.357;entryDx=0;entryDy=0;entryPerimeter=0;exitX=1;exitY=0.357;exitDx=0;exitDy=0;exitPerimeter=0;" edge="1" parent="1" source="zfEZaozMEuIx0nUbr--0-12">
          <mxGeometry width="50" height="50" relative="1" as="geometry">
            <mxPoint x="1052.43" y="210" as="sourcePoint" />
            <mxPoint x="1172.43" y="210" as="targetPoint" />
          </mxGeometry>
        </mxCell>
        <mxCell id="zfEZaozMEuIx0nUbr--0-47" value="Display website" style="edgeLabel;html=1;align=center;verticalAlign=middle;resizable=0;points=[];" vertex="1" connectable="0" parent="zfEZaozMEuIx0nUbr--0-46">
          <mxGeometry x="-0.2465" y="-1" relative="1" as="geometry">
            <mxPoint x="12" as="offset" />
          </mxGeometry>
        </mxCell>
        <mxCell id="zfEZaozMEuIx0nUbr--0-48" value="" style="image;aspect=fixed;perimeter=ellipsePerimeter;html=1;align=center;shadow=0;dashed=0;spacingTop=3;image=img/lib/active_directory/web_server.svg;" vertex="1" parent="1">
          <mxGeometry x="682.4300000000001" y="560" width="120" height="150" as="geometry" />
        </mxCell>
        <mxCell id="zfEZaozMEuIx0nUbr--0-49" value="" style="image;perimeter=ellipsePerimeter;html=1;align=center;shadow=0;dashed=0;spacingTop=3;image=img/lib/active_directory/database.svg;imageAspect=0;resizable=1;resizeWidth=1;resizeHeight=1;" vertex="1" parent="1">
          <mxGeometry x="460" y="550" width="120" height="165.5" as="geometry" />
        </mxCell>
        <mxCell id="zfEZaozMEuIx0nUbr--0-50" value="" style="shape=mxgraph.cisco.computers_and_peripherals.web_browser;html=1;pointerEvents=1;dashed=0;fillColor=light-dark(#3086E2,#5CB3DC);strokeColor=#ffffff;strokeWidth=2;verticalLabelPosition=bottom;verticalAlign=top;align=center;outlineConnect=0;" vertex="1" parent="1">
          <mxGeometry x="912.4300000000001" y="570" width="130" height="140" as="geometry" />
        </mxCell>
        <mxCell id="zfEZaozMEuIx0nUbr--0-51" value="&lt;font style=&quot;font-size: 16px;&quot;&gt;SQLite database&lt;/font&gt;" style="text;html=1;whiteSpace=wrap;strokeColor=none;fillColor=none;align=center;verticalAlign=middle;rounded=0;" vertex="1" parent="1">
          <mxGeometry x="480" y="715.5" width="80" height="30" as="geometry" />
        </mxCell>
        <mxCell id="zfEZaozMEuIx0nUbr--0-52" value="&lt;font style=&quot;font-size: 16px;&quot;&gt;Webserver&lt;/font&gt;" style="text;html=1;whiteSpace=wrap;strokeColor=none;fillColor=none;align=center;verticalAlign=middle;rounded=0;" vertex="1" parent="1">
          <mxGeometry x="690.4300000000001" y="710" width="80" height="30" as="geometry" />
        </mxCell>
        <mxCell id="zfEZaozMEuIx0nUbr--0-53" value="&lt;font style=&quot;font-size: 16px;&quot;&gt;Client/Browser&lt;/font&gt;" style="text;html=1;whiteSpace=wrap;strokeColor=none;fillColor=none;align=center;verticalAlign=middle;rounded=0;" vertex="1" parent="1">
          <mxGeometry x="946.4300000000001" y="715.5" width="80" height="30" as="geometry" />
        </mxCell>
        <mxCell id="zfEZaozMEuIx0nUbr--0-54" value="&lt;font style=&quot;font-size: 16px;&quot;&gt;Fingerprinting Website&lt;/font&gt;" style="text;html=1;whiteSpace=wrap;strokeColor=none;fillColor=none;align=center;verticalAlign=middle;rounded=0;" vertex="1" parent="1">
          <mxGeometry x="1202.43" y="715.5" width="140" height="30" as="geometry" />
        </mxCell>
        <mxCell id="zfEZaozMEuIx0nUbr--0-55" value="" style="verticalLabelPosition=bottom;shadow=0;dashed=0;align=center;html=1;verticalAlign=top;strokeWidth=1;shape=mxgraph.mockup.markup.curlyBrace;whiteSpace=wrap;strokeColor=light-dark(#000000, #6a6a6a);rotation=-180;" vertex="1" parent="1">
          <mxGeometry x="480.43" y="760" width="290" height="20" as="geometry" />
        </mxCell>
        <mxCell id="zfEZaozMEuIx0nUbr--0-56" value="" style="endArrow=none;dashed=1;html=1;dashPattern=1 3;strokeWidth=2;rounded=0;" edge="1" parent="1">
          <mxGeometry width="50" height="50" relative="1" as="geometry">
            <mxPoint x="856.4300000000001" y="830" as="sourcePoint" />
            <mxPoint x="856.4300000000001" y="550" as="targetPoint" />
          </mxGeometry>
        </mxCell>
        <mxCell id="zfEZaozMEuIx0nUbr--0-57" value="&lt;font style=&quot;font-size: 16px;&quot;&gt;Server-side&lt;/font&gt;" style="text;html=1;whiteSpace=wrap;strokeColor=none;fillColor=none;align=center;verticalAlign=middle;rounded=0;" vertex="1" parent="1">
          <mxGeometry x="573" y="800" width="104.86" height="30" as="geometry" />
        </mxCell>
        <mxCell id="zfEZaozMEuIx0nUbr--0-58" value="" style="verticalLabelPosition=bottom;shadow=0;dashed=0;align=center;html=1;verticalAlign=top;strokeWidth=1;shape=mxgraph.mockup.markup.curlyBrace;whiteSpace=wrap;strokeColor=light-dark(#000000, #6a6a6a);rotation=-180;" vertex="1" parent="1">
          <mxGeometry x="932.4300000000001" y="760" width="400" height="20" as="geometry" />
        </mxCell>
        <mxCell id="zfEZaozMEuIx0nUbr--0-59" value="&lt;font style=&quot;font-size: 16px;&quot;&gt;Client-side&lt;/font&gt;" style="text;html=1;whiteSpace=wrap;strokeColor=none;fillColor=none;align=center;verticalAlign=middle;rounded=0;" vertex="1" parent="1">
          <mxGeometry x="1092.43" y="800" width="80" height="30" as="geometry" />
        </mxCell>
        <mxCell id="zfEZaozMEuIx0nUbr--0-60" value="" style="endArrow=classic;html=1;rounded=0;" edge="1" parent="1">
          <mxGeometry width="50" height="50" relative="1" as="geometry">
            <mxPoint x="677.86" y="670" as="sourcePoint" />
            <mxPoint x="582.4300000000001" y="670" as="targetPoint" />
          </mxGeometry>
        </mxCell>
        <mxCell id="zfEZaozMEuIx0nUbr--0-61" value="Save user&amp;nbsp;&lt;div&gt;behaviour&lt;/div&gt;" style="edgeLabel;html=1;align=center;verticalAlign=middle;resizable=0;points=[];" vertex="1" connectable="0" parent="zfEZaozMEuIx0nUbr--0-60">
          <mxGeometry x="-0.2195" relative="1" as="geometry">
            <mxPoint x="-1" as="offset" />
          </mxGeometry>
        </mxCell>
        <mxCell id="zfEZaozMEuIx0nUbr--0-64" value="" style="group" vertex="1" connectable="0" parent="1">
          <mxGeometry x="1177.43" y="560" width="190" height="150" as="geometry" />
        </mxCell>
        <object placeholders="1" c4Name="Fingerprint Features" c4Type="Comprehensive Fingerprint Hash" c4Technology="eb51a2..." c4Description="" label="&lt;font style=&quot;font-size: 14px&quot;&gt;&lt;b&gt;%c4Name%&lt;/b&gt;&lt;/font&gt;&lt;div&gt;[%c4Type%:&amp;nbsp;%c4Technology%]&lt;/div&gt;&lt;br&gt;&lt;div&gt;&lt;font style=&quot;font-size: 11px&quot;&gt;&lt;font color=&quot;#E6E6E6&quot;&gt;%c4Description%&lt;/font&gt;&lt;/div&gt;" id="zfEZaozMEuIx0nUbr--0-65">
          <mxCell style="shape=mxgraph.c4.webBrowserContainer2;whiteSpace=wrap;html=1;boundedLbl=1;rounded=0;labelBackgroundColor=none;strokeColor=light-dark(#4363ba, #319ad3);fillColor=light-dark(#4abcfd, #1d8ab9);strokeColor=#118ACD;strokeColor2=#0E7DAD;fontSize=12;fontColor=#ffffff;align=center;metaEdit=1;points=[[0.5,0,0],[1,0.25,0],[1,0.5,0],[1,0.75,0],[0.5,1,0],[0,0.75,0],[0,0.5,0],[0,0.25,0]];resizable=1;resizeHeight=1;resizeWidth=1;" vertex="1" parent="zfEZaozMEuIx0nUbr--0-64">
            <mxGeometry y="10" width="190" height="140" as="geometry" />
          </mxCell>
        </object>
        <mxCell id="zfEZaozMEuIx0nUbr--0-66" value="&lt;font style=&quot;color: rgb(255, 255, 255);&quot;&gt;http://localhost:80&lt;/font&gt;" style="text;html=1;whiteSpace=wrap;strokeColor=none;fillColor=none;align=center;verticalAlign=middle;rounded=0;" vertex="1" parent="zfEZaozMEuIx0nUbr--0-64">
          <mxGeometry x="30" width="57" height="41" as="geometry" />
        </mxCell>
        <mxCell id="zfEZaozMEuIx0nUbr--0-67" value="" style="endArrow=classic;html=1;rounded=0;" edge="1" parent="1">
          <mxGeometry width="50" height="50" relative="1" as="geometry">
            <mxPoint x="1172.43" y="670" as="sourcePoint" />
            <mxPoint x="1042.43" y="670" as="targetPoint" />
          </mxGeometry>
        </mxCell>
        <mxCell id="zfEZaozMEuIx0nUbr--0-68" value="Calculate fingerprint" style="edgeLabel;html=1;align=center;verticalAlign=middle;resizable=0;points=[];" vertex="1" connectable="0" parent="zfEZaozMEuIx0nUbr--0-67">
          <mxGeometry x="-0.2195" relative="1" as="geometry">
            <mxPoint x="-11" as="offset" />
          </mxGeometry>
        </mxCell>
        <mxCell id="zfEZaozMEuIx0nUbr--0-69" value="" style="endArrow=classic;html=1;rounded=0;entryX=1;entryY=0.733;entryDx=0;entryDy=0;entryPerimeter=0;" edge="1" parent="1" target="zfEZaozMEuIx0nUbr--0-48">
          <mxGeometry width="50" height="50" relative="1" as="geometry">
            <mxPoint x="922.4300000000001" y="670" as="sourcePoint" />
            <mxPoint x="817" y="670" as="targetPoint" />
          </mxGeometry>
        </mxCell>
        <mxCell id="zfEZaozMEuIx0nUbr--0-70" value="Send fingerprint" style="edgeLabel;html=1;align=center;verticalAlign=middle;resizable=0;points=[];" vertex="1" connectable="0" parent="zfEZaozMEuIx0nUbr--0-69">
          <mxGeometry x="-0.2195" relative="1" as="geometry">
            <mxPoint x="-13" as="offset" />
          </mxGeometry>
        </mxCell>
        <mxCell id="zfEZaozMEuIx0nUbr--0-71" value="" style="endArrow=classic;html=1;rounded=0;entryX=0.077;entryY=0.357;entryDx=0;entryDy=0;entryPerimeter=0;exitX=0.667;exitY=0.4;exitDx=0;exitDy=0;exitPerimeter=0;" edge="1" parent="1" target="zfEZaozMEuIx0nUbr--0-50" source="zfEZaozMEuIx0nUbr--0-48">
          <mxGeometry width="50" height="50" relative="1" as="geometry">
            <mxPoint x="782.4300000000001" y="620" as="sourcePoint" />
            <mxPoint x="902.4300000000001" y="620" as="targetPoint" />
          </mxGeometry>
        </mxCell>
        <mxCell id="zfEZaozMEuIx0nUbr--0-72" value="Requested website" style="edgeLabel;html=1;align=center;verticalAlign=middle;resizable=0;points=[];" vertex="1" connectable="0" parent="zfEZaozMEuIx0nUbr--0-71">
          <mxGeometry x="-0.2465" y="-1" relative="1" as="geometry">
            <mxPoint x="28" as="offset" />
          </mxGeometry>
        </mxCell>
        <mxCell id="zfEZaozMEuIx0nUbr--0-73" value="" style="endArrow=classic;html=1;rounded=0;entryX=0.077;entryY=0.357;entryDx=0;entryDy=0;entryPerimeter=0;exitX=1.005;exitY=0.36;exitDx=0;exitDy=0;exitPerimeter=0;" edge="1" parent="1">
          <mxGeometry width="50" height="50" relative="1" as="geometry">
            <mxPoint x="1043.0800000000002" y="620.4000000000001" as="sourcePoint" />
            <mxPoint x="1172.43" y="620" as="targetPoint" />
          </mxGeometry>
        </mxCell>
        <mxCell id="zfEZaozMEuIx0nUbr--0-74" value="Display website" style="edgeLabel;html=1;align=center;verticalAlign=middle;resizable=0;points=[];" vertex="1" connectable="0" parent="zfEZaozMEuIx0nUbr--0-73">
          <mxGeometry x="-0.2465" y="-1" relative="1" as="geometry">
            <mxPoint x="12" as="offset" />
          </mxGeometry>
        </mxCell>
        <mxCell id="zfEZaozMEuIx0nUbr--0-75" value="&lt;font style=&quot;font-size: 18px;&quot;&gt;&lt;u&gt;Automated Testing&lt;/u&gt;&lt;/font&gt;" style="text;html=1;whiteSpace=wrap;strokeColor=none;fillColor=none;align=center;verticalAlign=middle;rounded=0;" vertex="1" parent="1">
          <mxGeometry x="642.4300000000001" y="50" width="200" height="30" as="geometry" />
        </mxCell>
        <mxCell id="zfEZaozMEuIx0nUbr--0-77" value="&lt;font style=&quot;font-size: 18px;&quot;&gt;&lt;u&gt;Fingerprinting Demonstration&lt;/u&gt;&lt;/font&gt;" style="text;html=1;whiteSpace=wrap;strokeColor=none;fillColor=none;align=center;verticalAlign=middle;rounded=0;" vertex="1" parent="1">
          <mxGeometry x="710" y="510" width="300" height="30" as="geometry" />
        </mxCell>
        <mxCell id="zfEZaozMEuIx0nUbr--0-78" value="" style="image;aspect=fixed;perimeter=ellipsePerimeter;html=1;align=center;shadow=0;dashed=0;spacingTop=3;image=img/lib/active_directory/web_server.svg;" vertex="1" parent="1">
          <mxGeometry x="682.4300000000001" y="860" width="120" height="150" as="geometry" />
        </mxCell>
        <mxCell id="zfEZaozMEuIx0nUbr--0-79" value="" style="image;perimeter=ellipsePerimeter;html=1;align=center;shadow=0;dashed=0;spacingTop=3;image=img/lib/active_directory/database.svg;imageAspect=0;resizable=1;resizeWidth=1;resizeHeight=1;" vertex="1" parent="1">
          <mxGeometry x="460" y="850" width="120" height="165.5" as="geometry" />
        </mxCell>
        <mxCell id="zfEZaozMEuIx0nUbr--0-80" value="" style="shape=mxgraph.cisco.computers_and_peripherals.web_browser;html=1;pointerEvents=1;dashed=0;fillColor=light-dark(#3086E2,#5CB3DC);strokeColor=#ffffff;strokeWidth=2;verticalLabelPosition=bottom;verticalAlign=top;align=center;outlineConnect=0;" vertex="1" parent="1">
          <mxGeometry x="912.4300000000001" y="870" width="130" height="140" as="geometry" />
        </mxCell>
        <mxCell id="zfEZaozMEuIx0nUbr--0-81" value="&lt;font style=&quot;font-size: 16px;&quot;&gt;SQLite database&lt;/font&gt;" style="text;html=1;whiteSpace=wrap;strokeColor=none;fillColor=none;align=center;verticalAlign=middle;rounded=0;" vertex="1" parent="1">
          <mxGeometry x="480" y="1015.5" width="80" height="30" as="geometry" />
        </mxCell>
        <mxCell id="zfEZaozMEuIx0nUbr--0-82" value="&lt;font style=&quot;font-size: 16px;&quot;&gt;Webserver&lt;/font&gt;" style="text;html=1;whiteSpace=wrap;strokeColor=none;fillColor=none;align=center;verticalAlign=middle;rounded=0;" vertex="1" parent="1">
          <mxGeometry x="690.4300000000001" y="1010" width="80" height="30" as="geometry" />
        </mxCell>
        <mxCell id="zfEZaozMEuIx0nUbr--0-83" value="&lt;font style=&quot;font-size: 16px;&quot;&gt;Client/Browser&lt;/font&gt;" style="text;html=1;whiteSpace=wrap;strokeColor=none;fillColor=none;align=center;verticalAlign=middle;rounded=0;" vertex="1" parent="1">
          <mxGeometry x="946.4300000000001" y="1015.5" width="80" height="30" as="geometry" />
        </mxCell>
        <mxCell id="zfEZaozMEuIx0nUbr--0-84" value="&lt;font style=&quot;font-size: 16px;&quot;&gt;Fingerprinting Website&lt;/font&gt;" style="text;html=1;whiteSpace=wrap;strokeColor=none;fillColor=none;align=center;verticalAlign=middle;rounded=0;" vertex="1" parent="1">
          <mxGeometry x="1202.43" y="1015.5" width="140" height="30" as="geometry" />
        </mxCell>
        <mxCell id="zfEZaozMEuIx0nUbr--0-85" value="" style="verticalLabelPosition=bottom;shadow=0;dashed=0;align=center;html=1;verticalAlign=top;strokeWidth=1;shape=mxgraph.mockup.markup.curlyBrace;whiteSpace=wrap;strokeColor=light-dark(#000000, #6a6a6a);rotation=-180;" vertex="1" parent="1">
          <mxGeometry x="480.43000000000006" y="1060" width="290" height="20" as="geometry" />
        </mxCell>
        <mxCell id="zfEZaozMEuIx0nUbr--0-86" value="" style="endArrow=none;dashed=1;html=1;dashPattern=1 3;strokeWidth=2;rounded=0;" edge="1" parent="1">
          <mxGeometry width="50" height="50" relative="1" as="geometry">
            <mxPoint x="856.4300000000001" y="1130" as="sourcePoint" />
            <mxPoint x="856.4300000000001" y="850" as="targetPoint" />
          </mxGeometry>
        </mxCell>
        <mxCell id="zfEZaozMEuIx0nUbr--0-87" value="&lt;font style=&quot;font-size: 16px;&quot;&gt;Server-side&lt;/font&gt;" style="text;html=1;whiteSpace=wrap;strokeColor=none;fillColor=none;align=center;verticalAlign=middle;rounded=0;" vertex="1" parent="1">
          <mxGeometry x="573" y="1100" width="104.86" height="30" as="geometry" />
        </mxCell>
        <mxCell id="zfEZaozMEuIx0nUbr--0-88" value="" style="verticalLabelPosition=bottom;shadow=0;dashed=0;align=center;html=1;verticalAlign=top;strokeWidth=1;shape=mxgraph.mockup.markup.curlyBrace;whiteSpace=wrap;strokeColor=light-dark(#000000, #6a6a6a);rotation=-180;" vertex="1" parent="1">
          <mxGeometry x="932.4300000000001" y="1060" width="400" height="20" as="geometry" />
        </mxCell>
        <mxCell id="zfEZaozMEuIx0nUbr--0-89" value="&lt;font style=&quot;font-size: 16px;&quot;&gt;Client-side&lt;/font&gt;" style="text;html=1;whiteSpace=wrap;strokeColor=none;fillColor=none;align=center;verticalAlign=middle;rounded=0;" vertex="1" parent="1">
          <mxGeometry x="1092.43" y="1100" width="80" height="30" as="geometry" />
        </mxCell>
        <mxCell id="zfEZaozMEuIx0nUbr--0-90" value="" style="endArrow=classic;html=1;rounded=0;" edge="1" parent="1">
          <mxGeometry width="50" height="50" relative="1" as="geometry">
            <mxPoint x="677.86" y="970" as="sourcePoint" />
            <mxPoint x="582.4300000000001" y="970" as="targetPoint" />
          </mxGeometry>
        </mxCell>
        <mxCell id="zfEZaozMEuIx0nUbr--0-91" value="Search for&lt;div&gt;fingerprint&lt;/div&gt;" style="edgeLabel;html=1;align=center;verticalAlign=middle;resizable=0;points=[];" vertex="1" connectable="0" parent="zfEZaozMEuIx0nUbr--0-90">
          <mxGeometry x="-0.2195" relative="1" as="geometry">
            <mxPoint x="-1" as="offset" />
          </mxGeometry>
        </mxCell>
        <mxCell id="zfEZaozMEuIx0nUbr--0-92" value="" style="group" vertex="1" connectable="0" parent="1">
          <mxGeometry x="1177.43" y="860" width="190" height="150" as="geometry" />
        </mxCell>
        <object placeholders="1" c4Name="Fingerprint Features" c4Type="Comprehensive Fingerprint Hash" c4Technology="eb51a2..." c4Description="" label="&lt;font style=&quot;font-size: 14px&quot;&gt;&lt;b&gt;%c4Name%&lt;/b&gt;&lt;/font&gt;&lt;div&gt;[%c4Type%:&amp;nbsp;%c4Technology%]&lt;/div&gt;&lt;br&gt;&lt;div&gt;&lt;font style=&quot;font-size: 11px&quot;&gt;&lt;font color=&quot;#E6E6E6&quot;&gt;%c4Description%&lt;/font&gt;&lt;/div&gt;" id="zfEZaozMEuIx0nUbr--0-93">
          <mxCell style="shape=mxgraph.c4.webBrowserContainer2;whiteSpace=wrap;html=1;boundedLbl=1;rounded=0;labelBackgroundColor=none;strokeColor=light-dark(#4363ba, #319ad3);fillColor=light-dark(#4abcfd, #1d8ab9);strokeColor=#118ACD;strokeColor2=#0E7DAD;fontSize=12;fontColor=#ffffff;align=center;metaEdit=1;points=[[0.5,0,0],[1,0.25,0],[1,0.5,0],[1,0.75,0],[0.5,1,0],[0,0.75,0],[0,0.5,0],[0,0.25,0]];resizable=1;resizeHeight=1;resizeWidth=1;" vertex="1" parent="zfEZaozMEuIx0nUbr--0-92">
            <mxGeometry y="10" width="190" height="140" as="geometry" />
          </mxCell>
        </object>
        <mxCell id="zfEZaozMEuIx0nUbr--0-94" value="&lt;font style=&quot;color: rgb(255, 255, 255);&quot;&gt;http://localhost:80&lt;/font&gt;" style="text;html=1;whiteSpace=wrap;strokeColor=none;fillColor=none;align=center;verticalAlign=middle;rounded=0;" vertex="1" parent="zfEZaozMEuIx0nUbr--0-92">
          <mxGeometry x="30" width="57" height="41" as="geometry" />
        </mxCell>
        <mxCell id="zfEZaozMEuIx0nUbr--0-95" value="" style="endArrow=classic;html=1;rounded=0;" edge="1" parent="1">
          <mxGeometry width="50" height="50" relative="1" as="geometry">
            <mxPoint x="1172.43" y="970" as="sourcePoint" />
            <mxPoint x="1042.43" y="970" as="targetPoint" />
          </mxGeometry>
        </mxCell>
        <mxCell id="zfEZaozMEuIx0nUbr--0-96" value="Calculate fingerprint" style="edgeLabel;html=1;align=center;verticalAlign=middle;resizable=0;points=[];" vertex="1" connectable="0" parent="zfEZaozMEuIx0nUbr--0-95">
          <mxGeometry x="-0.2195" relative="1" as="geometry">
            <mxPoint x="-11" as="offset" />
          </mxGeometry>
        </mxCell>
        <mxCell id="zfEZaozMEuIx0nUbr--0-97" value="" style="endArrow=classic;html=1;rounded=0;entryX=1;entryY=0.733;entryDx=0;entryDy=0;entryPerimeter=0;" edge="1" parent="1" target="zfEZaozMEuIx0nUbr--0-78">
          <mxGeometry width="50" height="50" relative="1" as="geometry">
            <mxPoint x="922.4300000000001" y="970" as="sourcePoint" />
            <mxPoint x="817" y="970" as="targetPoint" />
          </mxGeometry>
        </mxCell>
        <mxCell id="zfEZaozMEuIx0nUbr--0-98" value="Send fingerprint" style="edgeLabel;html=1;align=center;verticalAlign=middle;resizable=0;points=[];" vertex="1" connectable="0" parent="zfEZaozMEuIx0nUbr--0-97">
          <mxGeometry x="-0.2195" relative="1" as="geometry">
            <mxPoint x="-13" as="offset" />
          </mxGeometry>
        </mxCell>
        <mxCell id="zfEZaozMEuIx0nUbr--0-99" value="" style="endArrow=classic;html=1;rounded=0;entryX=0.077;entryY=0.357;entryDx=0;entryDy=0;entryPerimeter=0;exitX=0.667;exitY=0.4;exitDx=0;exitDy=0;exitPerimeter=0;" edge="1" parent="1" source="zfEZaozMEuIx0nUbr--0-78" target="zfEZaozMEuIx0nUbr--0-80">
          <mxGeometry width="50" height="50" relative="1" as="geometry">
            <mxPoint x="782.4300000000001" y="920" as="sourcePoint" />
            <mxPoint x="902.4300000000001" y="920" as="targetPoint" />
          </mxGeometry>
        </mxCell>
        <mxCell id="zfEZaozMEuIx0nUbr--0-100" value="Updated website based&lt;br&gt;on user behaviour" style="edgeLabel;html=1;align=center;verticalAlign=middle;resizable=0;points=[];" vertex="1" connectable="0" parent="zfEZaozMEuIx0nUbr--0-99">
          <mxGeometry x="-0.2465" y="-1" relative="1" as="geometry">
            <mxPoint x="28" as="offset" />
          </mxGeometry>
        </mxCell>
        <mxCell id="zfEZaozMEuIx0nUbr--0-101" value="" style="endArrow=classic;html=1;rounded=0;entryX=0.077;entryY=0.357;entryDx=0;entryDy=0;entryPerimeter=0;exitX=1.005;exitY=0.36;exitDx=0;exitDy=0;exitPerimeter=0;" edge="1" parent="1">
          <mxGeometry width="50" height="50" relative="1" as="geometry">
            <mxPoint x="1043.0800000000002" y="880.4000000000001" as="sourcePoint" />
            <mxPoint x="1172.43" y="880" as="targetPoint" />
          </mxGeometry>
        </mxCell>
        <mxCell id="zfEZaozMEuIx0nUbr--0-102" value="Display website" style="edgeLabel;html=1;align=center;verticalAlign=middle;resizable=0;points=[];" vertex="1" connectable="0" parent="zfEZaozMEuIx0nUbr--0-101">
          <mxGeometry x="-0.2465" y="-1" relative="1" as="geometry">
            <mxPoint x="12" as="offset" />
          </mxGeometry>
        </mxCell>
        <mxCell id="zfEZaozMEuIx0nUbr--0-105" value="" style="endArrow=classic;html=1;rounded=0;entryX=0;entryY=0.4;entryDx=0;entryDy=0;entryPerimeter=0;" edge="1" parent="1">
          <mxGeometry width="50" height="50" relative="1" as="geometry">
            <mxPoint x="582.86" y="920" as="sourcePoint" />
            <mxPoint x="682.43" y="920" as="targetPoint" />
          </mxGeometry>
        </mxCell>
        <mxCell id="zfEZaozMEuIx0nUbr--0-106" value="Retrieve user&lt;div&gt;behaviour&lt;/div&gt;" style="edgeLabel;html=1;align=center;verticalAlign=middle;resizable=0;points=[];" vertex="1" connectable="0" parent="zfEZaozMEuIx0nUbr--0-105">
          <mxGeometry x="-0.2465" y="-1" relative="1" as="geometry">
            <mxPoint x="12" as="offset" />
          </mxGeometry>
        </mxCell>
        <mxCell id="zfEZaozMEuIx0nUbr--0-109" value="" style="endArrow=classic;html=1;rounded=0;entryX=0.2;entryY=0.06;entryDx=0;entryDy=0;entryPerimeter=0;exitX=0.667;exitY=0.4;exitDx=0;exitDy=0;exitPerimeter=0;" edge="1" parent="1" target="zfEZaozMEuIx0nUbr--0-80">
          <mxGeometry width="50" height="50" relative="1" as="geometry">
            <mxPoint x="760" y="880" as="sourcePoint" />
            <mxPoint x="920" y="880" as="targetPoint" />
          </mxGeometry>
        </mxCell>
        <mxCell id="zfEZaozMEuIx0nUbr--0-110" value="Requested website" style="edgeLabel;html=1;align=center;verticalAlign=middle;resizable=0;points=[];" vertex="1" connectable="0" parent="zfEZaozMEuIx0nUbr--0-109">
          <mxGeometry x="-0.2465" y="-1" relative="1" as="geometry">
            <mxPoint x="23" as="offset" />
          </mxGeometry>
        </mxCell>
        <mxCell id="zfEZaozMEuIx0nUbr--0-111" value="" style="endArrow=classic;html=1;rounded=0;entryX=0.077;entryY=0.357;entryDx=0;entryDy=0;entryPerimeter=0;exitX=1.005;exitY=0.36;exitDx=0;exitDy=0;exitPerimeter=0;" edge="1" parent="1">
          <mxGeometry width="50" height="50" relative="1" as="geometry">
            <mxPoint x="1042.4299999999998" y="920.4000000000001" as="sourcePoint" />
            <mxPoint x="1171.7799999999997" y="920" as="targetPoint" />
          </mxGeometry>
        </mxCell>
        <mxCell id="zfEZaozMEuIx0nUbr--0-112" value="Display targeted ads" style="edgeLabel;html=1;align=center;verticalAlign=middle;resizable=0;points=[];" vertex="1" connectable="0" parent="zfEZaozMEuIx0nUbr--0-111">
          <mxGeometry x="-0.2465" y="-1" relative="1" as="geometry">
            <mxPoint x="12" as="offset" />
          </mxGeometry>
        </mxCell>
        <mxCell id="zfEZaozMEuIx0nUbr--0-113" value="1" style="ellipse;whiteSpace=wrap;html=1;aspect=fixed;rotation=0;gradientColor=#0057D2;strokeColor=none;gradientDirection=east;fillColor=#2395FF;rounded=0;pointerEvents=0;fontFamily=Helvetica;fontSize=16;fontColor=#FFFFFF;spacingTop=4;spacingBottom=4;spacingLeft=4;spacingRight=4;points=[];fontStyle=1" vertex="1" parent="1">
          <mxGeometry x="786.43" y="596" width="16" height="16" as="geometry" />
        </mxCell>
        <mxCell id="zfEZaozMEuIx0nUbr--0-114" value="2" style="ellipse;whiteSpace=wrap;html=1;aspect=fixed;rotation=0;gradientColor=#0057D2;strokeColor=none;gradientDirection=east;fillColor=#2395FF;rounded=0;pointerEvents=0;fontFamily=Helvetica;fontSize=16;fontColor=#FFFFFF;spacingTop=4;spacingBottom=4;spacingLeft=4;spacingRight=4;points=[];fontStyle=1" vertex="1" parent="1">
          <mxGeometry x="1050" y="596" width="16" height="16" as="geometry" />
        </mxCell>
        <mxCell id="zfEZaozMEuIx0nUbr--0-116" value="3" style="ellipse;whiteSpace=wrap;html=1;aspect=fixed;rotation=0;gradientColor=#0057D2;strokeColor=none;gradientDirection=east;fillColor=#2395FF;rounded=0;pointerEvents=0;fontFamily=Helvetica;fontSize=16;fontColor=#FFFFFF;spacingTop=4;spacingBottom=4;spacingLeft=4;spacingRight=4;points=[];fontStyle=1" vertex="1" parent="1">
          <mxGeometry x="1050" y="640" width="16" height="16" as="geometry" />
        </mxCell>
        <mxCell id="zfEZaozMEuIx0nUbr--0-117" value="4" style="ellipse;whiteSpace=wrap;html=1;aspect=fixed;rotation=0;gradientColor=#0057D2;strokeColor=none;gradientDirection=east;fillColor=#2395FF;rounded=0;pointerEvents=0;fontFamily=Helvetica;fontSize=16;fontColor=#FFFFFF;spacingTop=4;spacingBottom=4;spacingLeft=4;spacingRight=4;points=[];fontStyle=1" vertex="1" parent="1">
          <mxGeometry x="811" y="640" width="16" height="16" as="geometry" />
        </mxCell>
        <mxCell id="zfEZaozMEuIx0nUbr--0-118" value="5" style="ellipse;whiteSpace=wrap;html=1;aspect=fixed;rotation=0;gradientColor=#0057D2;strokeColor=none;gradientDirection=east;fillColor=#2395FF;rounded=0;pointerEvents=0;fontFamily=Helvetica;fontSize=16;fontColor=#FFFFFF;spacingTop=4;spacingBottom=4;spacingLeft=4;spacingRight=4;points=[];fontStyle=1" vertex="1" parent="1">
          <mxGeometry x="590" y="640" width="16" height="16" as="geometry" />
        </mxCell>
        <mxCell id="zfEZaozMEuIx0nUbr--0-120" value="6" style="ellipse;whiteSpace=wrap;html=1;aspect=fixed;rotation=0;gradientColor=#0057D2;strokeColor=none;gradientDirection=east;fillColor=#2395FF;rounded=0;pointerEvents=0;fontFamily=Helvetica;fontSize=16;fontColor=#FFFFFF;spacingTop=4;spacingBottom=4;spacingLeft=4;spacingRight=4;points=[];fontStyle=1" vertex="1" parent="1">
          <mxGeometry x="590" y="890" width="16" height="16" as="geometry" />
        </mxCell>
        <mxCell id="zfEZaozMEuIx0nUbr--0-121" value="7" style="ellipse;whiteSpace=wrap;html=1;aspect=fixed;rotation=0;gradientColor=#0057D2;strokeColor=none;gradientDirection=east;fillColor=#2395FF;rounded=0;pointerEvents=0;fontFamily=Helvetica;fontSize=16;fontColor=#FFFFFF;spacingTop=4;spacingBottom=4;spacingLeft=4;spacingRight=4;points=[];fontStyle=1" vertex="1" parent="1">
          <mxGeometry x="774" y="890" width="16" height="16" as="geometry" />
        </mxCell>
        <mxCell id="zfEZaozMEuIx0nUbr--0-122" value="1" style="ellipse;whiteSpace=wrap;html=1;aspect=fixed;rotation=0;gradientColor=#0057D2;strokeColor=none;gradientDirection=east;fillColor=#2395FF;rounded=0;pointerEvents=0;fontFamily=Helvetica;fontSize=16;fontColor=#FFFFFF;spacingTop=4;spacingBottom=4;spacingLeft=4;spacingRight=4;points=[];fontStyle=1" vertex="1" parent="1">
          <mxGeometry x="790" y="850" width="16" height="16" as="geometry" />
        </mxCell>
        <mxCell id="zfEZaozMEuIx0nUbr--0-124" value="2" style="ellipse;whiteSpace=wrap;html=1;aspect=fixed;rotation=0;gradientColor=#0057D2;strokeColor=none;gradientDirection=east;fillColor=#2395FF;rounded=0;pointerEvents=0;fontFamily=Helvetica;fontSize=16;fontColor=#FFFFFF;spacingTop=4;spacingBottom=4;spacingLeft=4;spacingRight=4;points=[];fontStyle=1" vertex="1" parent="1">
          <mxGeometry x="1050" y="850" width="16" height="16" as="geometry" />
        </mxCell>
        <mxCell id="zfEZaozMEuIx0nUbr--0-125" value="3" style="ellipse;whiteSpace=wrap;html=1;aspect=fixed;rotation=0;gradientColor=#0057D2;strokeColor=none;gradientDirection=east;fillColor=#2395FF;rounded=0;pointerEvents=0;fontFamily=Helvetica;fontSize=16;fontColor=#FFFFFF;spacingTop=4;spacingBottom=4;spacingLeft=4;spacingRight=4;points=[];fontStyle=1" vertex="1" parent="1">
          <mxGeometry x="1050" y="940" width="16" height="16" as="geometry" />
        </mxCell>
        <mxCell id="zfEZaozMEuIx0nUbr--0-126" value="4" style="ellipse;whiteSpace=wrap;html=1;aspect=fixed;rotation=0;gradientColor=#0057D2;strokeColor=none;gradientDirection=east;fillColor=#2395FF;rounded=0;pointerEvents=0;fontFamily=Helvetica;fontSize=16;fontColor=#FFFFFF;spacingTop=4;spacingBottom=4;spacingLeft=4;spacingRight=4;points=[];fontStyle=1" vertex="1" parent="1">
          <mxGeometry x="811" y="940" width="16" height="16" as="geometry" />
        </mxCell>
        <mxCell id="zfEZaozMEuIx0nUbr--0-127" value="5" style="ellipse;whiteSpace=wrap;html=1;aspect=fixed;rotation=0;gradientColor=#0057D2;strokeColor=none;gradientDirection=east;fillColor=#2395FF;rounded=0;pointerEvents=0;fontFamily=Helvetica;fontSize=16;fontColor=#FFFFFF;spacingTop=4;spacingBottom=4;spacingLeft=4;spacingRight=4;points=[];fontStyle=1" vertex="1" parent="1">
          <mxGeometry x="590" y="940" width="16" height="16" as="geometry" />
        </mxCell>
        <mxCell id="zfEZaozMEuIx0nUbr--0-128" value="8" style="ellipse;whiteSpace=wrap;html=1;aspect=fixed;rotation=0;gradientColor=#0057D2;strokeColor=none;gradientDirection=east;fillColor=#2395FF;rounded=0;pointerEvents=0;fontFamily=Helvetica;fontSize=16;fontColor=#FFFFFF;spacingTop=4;spacingBottom=4;spacingLeft=4;spacingRight=4;points=[];fontStyle=1" vertex="1" parent="1">
          <mxGeometry x="1050" y="890" width="16" height="16" as="geometry" />
        </mxCell>
        <mxCell id="zfEZaozMEuIx0nUbr--0-132" value="1" style="ellipse;whiteSpace=wrap;html=1;aspect=fixed;rotation=0;gradientColor=#223548;strokeColor=none;gradientDirection=east;fillColor=#5b738b;rounded=0;pointerEvents=0;fontFamily=Helvetica;fontSize=16;fontColor=#FFFFFF;spacingTop=4;spacingBottom=4;spacingLeft=4;spacingRight=4;points=[];fontStyle=1" vertex="1" parent="1">
          <mxGeometry x="180" y="570" width="40" height="40" as="geometry" />
        </mxCell>
        <mxCell id="zfEZaozMEuIx0nUbr--0-133" value="&lt;font style=&quot;font-size: 16px;&quot;&gt;Creation of fingerprint&lt;/font&gt;" style="text;html=1;whiteSpace=wrap;strokeColor=none;fillColor=none;align=center;verticalAlign=middle;rounded=0;" vertex="1" parent="1">
          <mxGeometry x="220" y="575" width="190" height="30" as="geometry" />
        </mxCell>
        <mxCell id="zfEZaozMEuIx0nUbr--0-134" value="2" style="ellipse;whiteSpace=wrap;html=1;aspect=fixed;rotation=0;gradientColor=#223548;strokeColor=none;gradientDirection=east;fillColor=#5b738b;rounded=0;pointerEvents=0;fontFamily=Helvetica;fontSize=16;fontColor=#FFFFFF;spacingTop=4;spacingBottom=4;spacingLeft=4;spacingRight=4;points=[];fontStyle=1" vertex="1" parent="1">
          <mxGeometry x="180" y="870" width="40" height="40" as="geometry" />
        </mxCell>
        <mxCell id="zfEZaozMEuIx0nUbr--0-135" value="&lt;font style=&quot;font-size: 16px;&quot;&gt;Use of fingerprint&lt;/font&gt;" style="text;html=1;whiteSpace=wrap;strokeColor=none;fillColor=none;align=center;verticalAlign=middle;rounded=0;" vertex="1" parent="1">
          <mxGeometry x="200" y="875" width="190" height="30" as="geometry" />
        </mxCell>
        <mxCell id="zfEZaozMEuIx0nUbr--0-136" value="2" style="ellipse;whiteSpace=wrap;html=1;aspect=fixed;rotation=0;gradientColor=#0057D2;strokeColor=none;gradientDirection=east;fillColor=#2395FF;rounded=0;pointerEvents=0;fontFamily=Helvetica;fontSize=16;fontColor=#FFFFFF;spacingTop=4;spacingBottom=4;spacingLeft=4;spacingRight=4;points=[];fontStyle=1" vertex="1" parent="1">
          <mxGeometry x="786.43" y="180" width="16" height="16" as="geometry" />
        </mxCell>
        <mxCell id="zfEZaozMEuIx0nUbr--0-137" value="3" style="ellipse;whiteSpace=wrap;html=1;aspect=fixed;rotation=0;gradientColor=#0057D2;strokeColor=none;gradientDirection=east;fillColor=#2395FF;rounded=0;pointerEvents=0;fontFamily=Helvetica;fontSize=16;fontColor=#FFFFFF;spacingTop=4;spacingBottom=4;spacingLeft=4;spacingRight=4;points=[];fontStyle=1" vertex="1" parent="1">
          <mxGeometry x="1050" y="180" width="16" height="16" as="geometry" />
        </mxCell>
        <mxCell id="zfEZaozMEuIx0nUbr--0-138" value="4" style="ellipse;whiteSpace=wrap;html=1;aspect=fixed;rotation=0;gradientColor=#0057D2;strokeColor=none;gradientDirection=east;fillColor=#2395FF;rounded=0;pointerEvents=0;fontFamily=Helvetica;fontSize=16;fontColor=#FFFFFF;spacingTop=4;spacingBottom=4;spacingLeft=4;spacingRight=4;points=[];fontStyle=1" vertex="1" parent="1">
          <mxGeometry x="1050" y="224" width="16" height="16" as="geometry" />
        </mxCell>
        <mxCell id="zfEZaozMEuIx0nUbr--0-139" value="5" style="ellipse;whiteSpace=wrap;html=1;aspect=fixed;rotation=0;gradientColor=#0057D2;strokeColor=none;gradientDirection=east;fillColor=#2395FF;rounded=0;pointerEvents=0;fontFamily=Helvetica;fontSize=16;fontColor=#FFFFFF;spacingTop=4;spacingBottom=4;spacingLeft=4;spacingRight=4;points=[];fontStyle=1" vertex="1" parent="1">
          <mxGeometry x="811" y="224" width="16" height="16" as="geometry" />
        </mxCell>
        <mxCell id="zfEZaozMEuIx0nUbr--0-140" value="6" style="ellipse;whiteSpace=wrap;html=1;aspect=fixed;rotation=0;gradientColor=#0057D2;strokeColor=none;gradientDirection=east;fillColor=#2395FF;rounded=0;pointerEvents=0;fontFamily=Helvetica;fontSize=16;fontColor=#FFFFFF;spacingTop=4;spacingBottom=4;spacingLeft=4;spacingRight=4;points=[];fontStyle=1" vertex="1" parent="1">
          <mxGeometry x="590" y="224" width="16" height="16" as="geometry" />
        </mxCell>
        <mxCell id="zfEZaozMEuIx0nUbr--0-141" value="" style="sketch=0;pointerEvents=1;shadow=0;dashed=0;html=1;strokeColor=none;fillColor=light-dark(#3086e2, #a8a8a8);labelPosition=center;verticalLabelPosition=bottom;verticalAlign=top;outlineConnect=0;align=center;shape=mxgraph.office.users.csv_file;resizeWidth=1;resizeHeight=1;" vertex="1" parent="1">
          <mxGeometry x="200" y="170" width="140" height="125" as="geometry" />
        </mxCell>
        <mxCell id="zfEZaozMEuIx0nUbr--0-142" value="" style="endArrow=none;dashed=1;html=1;dashPattern=1 3;strokeWidth=2;rounded=0;" edge="1" parent="1">
          <mxGeometry width="50" height="50" relative="1" as="geometry">
            <mxPoint x="400" y="420" as="sourcePoint" />
            <mxPoint x="400" y="140" as="targetPoint" />
          </mxGeometry>
        </mxCell>
        <mxCell id="zfEZaozMEuIx0nUbr--0-143" value="&lt;font style=&quot;font-size: 16px;&quot;&gt;Data analysis&lt;/font&gt;" style="text;html=1;whiteSpace=wrap;strokeColor=none;fillColor=none;align=center;verticalAlign=middle;rounded=0;" vertex="1" parent="1">
          <mxGeometry x="240" y="305.5" width="80" height="30" as="geometry" />
        </mxCell>
        <mxCell id="zfEZaozMEuIx0nUbr--0-144" value="" style="endArrow=classic;html=1;rounded=0;" edge="1" parent="1">
          <mxGeometry width="50" height="50" relative="1" as="geometry">
            <mxPoint x="455.42999999999995" y="260" as="sourcePoint" />
            <mxPoint x="350" y="260" as="targetPoint" />
          </mxGeometry>
        </mxCell>
        <mxCell id="zfEZaozMEuIx0nUbr--0-145" value="Retrieve data" style="edgeLabel;html=1;align=center;verticalAlign=middle;resizable=0;points=[];" vertex="1" connectable="0" parent="zfEZaozMEuIx0nUbr--0-144">
          <mxGeometry x="-0.2195" relative="1" as="geometry">
            <mxPoint x="-1" as="offset" />
          </mxGeometry>
        </mxCell>
        <mxCell id="zfEZaozMEuIx0nUbr--0-146" value="7" style="ellipse;whiteSpace=wrap;html=1;aspect=fixed;rotation=0;gradientColor=#0057D2;strokeColor=none;gradientDirection=east;fillColor=#2395FF;rounded=0;pointerEvents=0;fontFamily=Helvetica;fontSize=16;fontColor=#FFFFFF;spacingTop=4;spacingBottom=4;spacingLeft=4;spacingRight=4;points=[];fontStyle=1" vertex="1" parent="1">
          <mxGeometry x="370" y="224.5" width="16" height="16" as="geometry" />
        </mxCell>
        <mxCell id="zfEZaozMEuIx0nUbr--0-152" value="" style="verticalLabelPosition=bottom;html=1;verticalAlign=top;align=center;strokeColor=none;fillColor=light-dark(#3086e2, #0089b6);shape=mxgraph.azure.automation;pointerEvents=1;" vertex="1" parent="1">
          <mxGeometry x="934.65" y="-20" width="103.57" height="90" as="geometry" />
        </mxCell>
        <mxCell id="zfEZaozMEuIx0nUbr--0-153" value="" style="endArrow=classic;html=1;rounded=0;" edge="1" parent="1">
          <mxGeometry width="50" height="50" relative="1" as="geometry">
            <mxPoint x="988.22" y="100" as="sourcePoint" />
            <mxPoint x="988.22" y="160" as="targetPoint" />
          </mxGeometry>
        </mxCell>
        <mxCell id="zfEZaozMEuIx0nUbr--0-154" value="Configure/Start browser" style="edgeLabel;html=1;align=center;verticalAlign=middle;resizable=0;points=[];" vertex="1" connectable="0" parent="zfEZaozMEuIx0nUbr--0-153">
          <mxGeometry x="-0.2465" y="-1" relative="1" as="geometry">
            <mxPoint x="1" y="4" as="offset" />
          </mxGeometry>
        </mxCell>
        <mxCell id="zfEZaozMEuIx0nUbr--0-155" value="&lt;font style=&quot;font-size: 16px;&quot;&gt;Selenium&lt;/font&gt;" style="text;html=1;whiteSpace=wrap;strokeColor=none;fillColor=none;align=center;verticalAlign=middle;rounded=0;" vertex="1" parent="1">
          <mxGeometry x="946.4300000000001" y="70" width="80" height="30" as="geometry" />
        </mxCell>
        <mxCell id="zfEZaozMEuIx0nUbr--0-156" value="1" style="ellipse;whiteSpace=wrap;html=1;aspect=fixed;rotation=0;gradientColor=#0057D2;strokeColor=none;gradientDirection=east;fillColor=#2395FF;rounded=0;pointerEvents=0;fontFamily=Helvetica;fontSize=16;fontColor=#FFFFFF;spacingTop=4;spacingBottom=4;spacingLeft=4;spacingRight=4;points=[];fontStyle=1" vertex="1" parent="1">
          <mxGeometry x="912.43" y="100" width="16" height="16" as="geometry" />
        </mxCell>
      </root>
    </mxGraphModel>
  </diagram>
</mxfile>
